<svg width="178" height="75" viewBox="0 0 178 75" fill="none" xmlns="http://www.w3.org/2000/svg">
<g clip-path="url(#clip0_359_17855)">
<path d="M27.3523 28.7321C29.1415 27.43 30.1871 25.8173 29.6878 25.1299C29.1884 24.4426 27.3332 24.9409 25.5441 26.2429C23.7549 27.545 22.7093 29.1578 23.2086 29.8452C23.708 30.5325 25.5632 30.0342 27.3523 28.7321Z" fill="white"/>
<path d="M23.9156 20.7365C26.0766 18.3482 28.3935 16.1058 30.8509 14.0242C33.302 11.9126 35.8853 9.95955 38.5849 8.17708C39.9563 7.28924 41.3765 6.47903 42.8386 5.7503C44.3533 4.94997 46.0089 4.45172 47.7134 4.28324L48.4204 4.31613C48.6363 4.3376 48.8522 4.35908 49.033 4.42071C49.472 4.50687 49.8995 4.64356 50.3071 4.82803C50.7396 5.01827 51.1351 5.28349 51.4753 5.61144C51.8146 5.94531 52.0725 6.35288 52.2291 6.8026C52.4784 7.65229 52.4623 8.55799 52.1828 9.39833C51.9465 10.1841 51.5865 10.9271 51.1166 11.5996C51.3994 10.8568 51.5895 10.0819 51.6825 9.29247C51.7913 8.56609 51.6877 7.82374 51.3841 7.15509C51.2275 6.86273 51.0121 6.60593 50.7516 6.40082C50.4911 6.19571 50.191 6.04672 49.8703 5.96317C49.5295 5.85982 49.1801 5.78751 48.8263 5.74712L48.2834 5.69313L47.7831 5.71197C46.3152 6.00467 44.9071 6.5435 43.6185 7.30574C42.2443 8.02964 40.898 8.84985 39.5776 9.72252C38.2572 10.5952 36.9429 11.4685 35.6373 12.38C34.3318 13.2916 33.049 14.2241 31.7428 15.1418C29.1564 17.0298 26.5705 18.9115 23.9156 20.7365Z" fill="white"/>
<path d="M13.7137 32.7297C14.4568 31.2848 15.3296 29.9106 16.3213 28.6239C17.3087 27.3223 18.3645 26.0743 19.4844 24.8851C20.5819 23.6847 21.7714 22.5621 22.9745 21.4907C24.1776 20.4193 25.477 19.3824 26.801 18.4103C28.139 17.4384 29.546 16.5654 31.0109 15.7983C31.7606 15.4084 32.5353 15.0688 33.33 14.7818C34.1497 14.4727 35.0076 14.2769 35.88 14.1998L36.5605 14.1864C36.7826 14.2084 36.9924 14.2293 37.2145 14.2514C37.6611 14.2935 38.1013 14.3875 38.5261 14.5315C38.9829 14.6658 39.407 14.8928 39.7722 15.1984C40.1373 15.504 40.4357 15.8816 40.6485 16.3077C40.982 17.1313 41.0549 18.0375 40.8577 18.9039C40.6985 19.7145 40.4106 20.4943 40.0049 21.2137C40.2226 20.4454 40.3412 19.6525 40.3579 18.8542C40.4009 18.1149 40.2248 17.3793 39.8517 16.7398C39.6647 16.4627 39.4223 16.2275 39.1397 16.0491C38.8572 15.8707 38.5406 15.7531 38.2102 15.7036C37.5024 15.5653 36.7757 15.5543 36.064 15.671C34.5814 16.001 33.1629 16.5719 31.8648 17.3611C30.4929 18.1297 29.1716 18.9856 27.9091 19.9235C26.6159 20.8363 25.3714 21.8226 24.143 22.8353C22.9145 23.8481 21.7133 24.901 20.5176 25.9607C18.1096 28.0715 15.8371 30.3323 13.7137 32.7297Z" fill="white"/>
<path d="M19.2912 25.8888C21.343 23.4052 23.5576 21.061 25.9204 18.8717C28.2741 16.651 30.7689 14.5849 33.3889 12.6864C34.7183 11.7348 36.1013 10.8604 37.5309 10.0676C39.0095 9.19865 40.643 8.62611 42.3402 8.38203C42.5685 8.40473 42.8146 8.37309 43.0441 8.38344C43.2736 8.39379 43.476 8.42639 43.6919 8.44786C44.1353 8.5103 44.5693 8.62678 44.9845 8.79467C45.4152 8.97164 45.8119 9.22209 46.157 9.53485C46.5119 9.85577 46.7879 10.2546 46.9632 10.7001C47.2531 11.5349 47.2785 12.439 47.036 13.2889C46.836 14.0851 46.5102 14.8443 46.0709 15.5376C46.3217 14.7834 46.475 14.0002 46.527 13.2071C46.5991 12.4741 46.4559 11.7361 46.1151 11.0834C45.945 10.7979 45.7176 10.5507 45.4473 10.3575C45.177 10.1642 44.8696 10.0291 44.5445 9.96068C44.2012 9.87089 43.8499 9.81505 43.4957 9.794L42.9491 9.77706L42.4519 9.82741C40.9965 10.1838 39.6118 10.7841 38.3564 11.6027C37.0323 12.3877 35.6989 13.2653 34.4353 14.1935C33.1717 15.1217 31.876 16.0592 30.6142 17.0312C29.3525 18.0033 28.108 18.9895 26.8456 19.9677C24.3622 21.9469 21.8585 23.9428 19.2912 25.8888Z" fill="white"/>
<path d="M28.8419 34.4774C26.6819 36.8687 24.3627 39.111 21.9004 41.1891C19.4488 43.3027 16.8634 45.2556 14.1603 47.0356C12.7889 47.927 11.3665 48.7371 9.90038 49.4618C8.38766 50.2671 6.73108 50.7656 5.02559 50.9289C4.79115 50.9056 4.55303 50.9193 4.32476 50.8966C4.09649 50.8739 3.8929 50.8536 3.68127 50.7889C3.2423 50.7049 2.81454 50.5703 2.40653 50.3878C1.97547 50.195 1.58042 49.9301 1.23835 49.6044C0.898478 49.2687 0.640713 48.8589 0.48516 48.4071C0.237531 47.5594 0.2513 46.6566 0.524666 45.8169C0.765891 45.0321 1.12769 44.2897 1.59707 43.6162C1.31149 44.356 1.12153 45.1293 1.03182 45.9172C0.922657 46.6455 1.02605 47.3899 1.32956 48.0608C1.48509 48.3534 1.70024 48.6101 1.96111 48.8144C2.22197 49.0186 2.52275 49.1658 2.84401 49.2465C3.18392 49.3531 3.53362 49.4255 3.88793 49.4625C4.06684 49.4803 4.25193 49.4987 4.43084 49.5165L4.9256 49.4909C6.39425 49.1981 7.80373 48.6617 9.09581 47.9039C10.47 47.18 11.8163 46.3598 13.1367 45.4871C14.4571 44.6145 15.8028 43.7381 17.0714 42.8228C18.3399 41.9076 19.6659 40.9794 20.969 40.0925C23.6005 38.1903 26.1876 36.2962 28.8419 34.4774Z" fill="white"/>
<path d="M39.1548 22.4948C38.4114 23.9395 37.5386 25.3138 36.5472 26.6006C35.5601 27.8987 34.5067 29.1447 33.3909 30.3338C32.2866 31.5397 31.0977 32.6562 29.8946 33.7276C28.6915 34.799 27.3922 35.8359 26.0675 36.8142C24.7292 37.7856 23.3222 38.6586 21.8576 39.4262C21.1074 39.815 20.3327 40.1545 19.5385 40.4427C18.7182 40.7478 17.8608 40.9414 16.9891 41.0185C16.7633 41.0335 16.5332 41.0293 16.308 41.0381L15.6541 40.9731C15.2079 40.9279 14.7681 40.834 14.3424 40.693C13.8862 40.5594 13.4626 40.3326 13.0984 40.027C12.7342 39.7214 12.4372 39.3436 12.2261 38.9174C11.8895 38.0923 11.8145 37.1836 12.0115 36.3144C12.1733 35.5066 12.4608 34.7293 12.8636 34.0108C12.6489 34.7797 12.5303 35.5722 12.5106 36.3702C12.4668 37.1078 12.6432 37.8417 13.0174 38.4785C13.2042 38.7572 13.4473 38.9935 13.7312 39.1721C14.015 39.3508 14.3332 39.4677 14.6651 39.5153C15.3729 39.6531 16.0996 39.6641 16.8113 39.5479C18.2902 39.2159 19.7059 38.6471 21.0037 37.8634C22.3769 37.0943 23.6985 36.2362 24.96 35.2948C26.2533 34.382 27.4977 33.3958 28.7262 32.383C29.9546 31.3702 31.1552 30.3235 32.3509 29.2638C34.7601 27.1543 37.0327 24.8934 39.1548 22.4948Z" fill="white"/>
<path d="M33.5712 29.3353C31.5212 31.8268 29.3058 34.1773 26.9402 36.3709C24.585 38.59 22.0904 40.6559 19.4717 42.5562C18.1395 43.5038 16.7568 44.3779 15.3297 45.175C13.8527 46.041 12.2216 46.6116 10.5272 46.855C10.2927 46.8317 10.0466 46.8633 9.81712 46.853C9.58762 46.8426 9.39142 46.8107 9.16932 46.7886C8.72848 46.7238 8.29674 46.6076 7.8829 46.4424C7.45204 46.2658 7.05527 46.0153 6.71042 45.7022C6.35598 45.3831 6.07988 44.9865 5.90357 44.5432C5.61684 43.7078 5.59146 42.8046 5.8308 41.9543C6.03111 41.1574 6.3591 40.3982 6.80201 39.7062C6.55275 40.4587 6.39769 41.2392 6.3404 42.0299C6.26319 42.765 6.40635 43.5065 6.75164 44.1598C6.92115 44.4446 7.14759 44.6913 7.41679 44.8844C7.68598 45.0774 7.99213 45.2128 8.31604 45.282C8.66041 45.3665 9.01162 45.4202 9.3655 45.4424C9.54441 45.4602 9.72949 45.4786 9.91826 45.46L10.4087 45.4152C11.8636 45.0576 13.2481 44.4574 14.5042 43.6399C15.8571 42.8425 17.1681 41.9759 18.4321 41.0436C19.7241 40.1431 20.9852 39.1773 22.2464 38.2114C23.5075 37.2456 24.7532 36.247 26.015 35.275C28.5057 33.284 31.0039 31.2812 33.5712 29.3353Z" fill="white"/>
</g>
<path d="M41.614 47.23C44.259 47.23 46.513 46.287 48.008 44.539L46.076 42.699C44.903 43.987 43.454 44.608 41.775 44.608C38.44 44.608 36.025 42.262 36.025 38.95C36.025 35.638 38.44 33.292 41.775 33.292C43.454 33.292 44.903 33.913 46.076 35.178L48.008 33.361C46.513 31.613 44.259 30.67 41.637 30.67C36.692 30.67 33.012 34.143 33.012 38.95C33.012 43.757 36.692 47.23 41.614 47.23ZM49.4469 47H52.3219V29.934H49.4469V47ZM56.3944 32.694C57.4754 32.694 58.2344 31.912 58.2344 30.9C58.2344 29.957 57.4524 29.244 56.3944 29.244C55.3364 29.244 54.5544 30.003 54.5544 30.969C54.5544 31.935 55.3364 32.694 56.3944 32.694ZM54.9454 47H57.8204V34.718H54.9454V47ZM65.9638 47.161C69.7818 47.161 72.5188 44.539 72.5188 40.859C72.5188 37.179 69.7818 34.58 65.9638 34.58C62.1918 34.58 59.4318 37.179 59.4318 40.859C59.4318 44.539 62.1918 47.161 65.9638 47.161ZM65.9638 44.7C63.8938 44.7 62.3298 43.205 62.3298 40.859C62.3298 38.513 63.8938 37.018 65.9638 37.018C68.0568 37.018 69.6208 38.513 69.6208 40.859C69.6208 43.205 68.0568 44.7 65.9638 44.7ZM74.394 47H81.432C86.653 47 90.218 43.78 90.218 38.95C90.218 34.12 86.653 30.9 81.432 30.9H74.394V47ZM77.384 44.47V33.43H81.294C84.882 33.43 87.205 35.615 87.205 38.95C87.205 42.285 84.882 44.47 81.294 44.47H77.384ZM93.419 32.694C94.5 32.694 95.259 31.912 95.259 30.9C95.259 29.957 94.477 29.244 93.419 29.244C92.361 29.244 91.579 30.003 91.579 30.969C91.579 31.935 92.361 32.694 93.419 32.694ZM91.97 47H94.845V34.718H91.97V47ZM104.437 34.58C102.643 34.58 101.148 35.178 100.205 36.305V34.718H97.4684V47H100.343V40.79C100.343 38.329 101.723 37.087 103.77 37.087C105.61 37.087 106.691 38.145 106.691 40.33V47H109.566V39.962C109.566 36.259 107.381 34.58 104.437 34.58ZM116.756 34.58C114.778 34.58 112.869 35.086 111.558 36.098L112.685 38.191C113.605 37.432 115.031 36.972 116.411 36.972C118.458 36.972 119.47 37.961 119.47 39.64V39.824H116.296C112.57 39.824 111.19 41.434 111.19 43.481C111.19 45.62 112.961 47.161 115.767 47.161C117.607 47.161 118.941 46.563 119.631 45.505V47H122.345V39.801C122.345 36.259 120.298 34.58 116.756 34.58ZM116.365 45.068C114.893 45.068 114.019 44.401 114.019 43.366C114.019 42.469 114.548 41.733 116.503 41.733H119.47V43.159C118.987 44.424 117.768 45.068 116.365 45.068ZM140.386 34.58C138.431 34.58 136.775 35.362 135.786 36.627C134.935 35.247 133.44 34.58 131.646 34.58C129.967 34.58 128.541 35.178 127.621 36.282V34.718H124.884V47H127.759V40.767C127.759 38.329 129.047 37.087 130.956 37.087C132.704 37.087 133.716 38.145 133.716 40.33V47H136.591V40.767C136.591 38.329 137.902 37.087 139.788 37.087C141.536 37.087 142.548 38.145 142.548 40.33V47H145.423V39.962C145.423 36.259 143.353 34.58 140.386 34.58ZM149.396 32.694C150.477 32.694 151.236 31.912 151.236 30.9C151.236 29.957 150.454 29.244 149.396 29.244C148.338 29.244 147.556 30.003 147.556 30.969C147.556 31.935 148.338 32.694 149.396 32.694ZM147.947 47H150.822V34.718H147.947V47ZM159.081 47.161C161.473 47.161 163.382 46.126 164.325 44.286L162.117 42.998C161.381 44.171 160.277 44.7 159.058 44.7C156.942 44.7 155.332 43.251 155.332 40.859C155.332 38.49 156.942 37.018 159.058 37.018C160.277 37.018 161.381 37.547 162.117 38.72L164.325 37.432C163.382 35.569 161.473 34.58 159.081 34.58C155.194 34.58 152.434 37.179 152.434 40.859C152.434 44.539 155.194 47.161 159.081 47.161ZM170.352 34.58C168.374 34.58 166.465 35.086 165.154 36.098L166.281 38.191C167.201 37.432 168.627 36.972 170.007 36.972C172.054 36.972 173.066 37.961 173.066 39.64V39.824H169.892C166.166 39.824 164.786 41.434 164.786 43.481C164.786 45.62 166.557 47.161 169.363 47.161C171.203 47.161 172.537 46.563 173.227 45.505V47H175.941V39.801C175.941 36.259 173.894 34.58 170.352 34.58ZM169.961 45.068C168.489 45.068 167.615 44.401 167.615 43.366C167.615 42.469 168.144 41.733 170.099 41.733H173.066V43.159C172.583 44.424 171.364 45.068 169.961 45.068Z" fill="white"/>
<path d="M86.8117 64.102C88.4267 64.102 89.7697 63.422 90.4837 62.164L89.2427 61.382C88.6647 62.266 87.7807 62.674 86.7947 62.674C85.0267 62.674 83.7007 61.45 83.7007 59.495C83.7007 57.574 85.0267 56.333 86.7947 56.333C87.7807 56.333 88.6647 56.741 89.2427 57.625L90.4837 56.826C89.7697 55.568 88.4267 54.905 86.8117 54.905C84.0407 54.905 82.0517 56.809 82.0517 59.495C82.0517 62.181 84.0407 64.102 86.8117 64.102ZM96.8328 64.102C99.5358 64.102 101.508 62.181 101.508 59.495C101.508 56.809 99.5358 54.905 96.8328 54.905C94.1298 54.905 92.1408 56.809 92.1408 59.495C92.1408 62.181 94.1298 64.102 96.8328 64.102ZM96.8328 62.674C95.0988 62.674 93.7898 61.416 93.7898 59.495C93.7898 57.574 95.0988 56.333 96.8328 56.333C98.5668 56.333 99.8588 57.574 99.8588 59.495C99.8588 61.416 98.5668 62.674 96.8328 62.674ZM109.086 54.905C107.658 54.905 106.502 55.432 105.839 56.35V54.99H104.275V64H105.907V59.359C105.907 57.404 107.029 56.367 108.763 56.367C110.31 56.367 111.194 57.234 111.194 59.002V64H112.826V58.815C112.826 56.163 111.279 54.905 109.086 54.905ZM118.94 64.102C121.337 64.102 122.833 63.065 122.833 61.433C122.833 57.931 117.121 59.665 117.121 57.54C117.121 56.826 117.818 56.299 119.246 56.299C120.13 56.299 121.031 56.486 121.847 57.013L122.544 55.721C121.762 55.211 120.436 54.905 119.263 54.905C116.951 54.905 115.506 55.993 115.506 57.608C115.506 61.195 121.201 59.444 121.201 61.467C121.201 62.232 120.572 62.691 119.059 62.691C117.886 62.691 116.662 62.3 115.897 61.756L115.217 63.048C115.965 63.643 117.444 64.102 118.94 64.102ZM132.149 54.99V59.648C132.149 61.586 131.061 62.64 129.361 62.64C127.814 62.64 126.93 61.756 126.93 59.988V54.99H125.298V60.175C125.298 62.827 126.845 64.102 129.174 64.102C130.449 64.102 131.571 63.575 132.234 62.64V64H133.781V54.99H132.149ZM137.398 64H139.03V51.386H137.398V64ZM147.427 62.3C147.087 62.572 146.628 62.725 146.152 62.725C145.251 62.725 144.741 62.181 144.741 61.212V56.333H147.325V54.99H144.741V53.018H143.109V54.99H141.579V56.333H143.109V61.28C143.109 63.099 144.146 64.102 145.965 64.102C146.696 64.102 147.444 63.898 147.937 63.473L147.427 62.3ZM151.236 53.256C151.882 53.256 152.341 52.78 152.341 52.168C152.341 51.59 151.865 51.131 151.236 51.131C150.607 51.131 150.131 51.607 150.131 52.202C150.131 52.797 150.607 53.256 151.236 53.256ZM150.42 64H152.052V54.99H150.42V64ZM160.49 54.905C159.062 54.905 157.906 55.432 157.243 56.35V54.99H155.679V64H157.311V59.359C157.311 57.404 158.433 56.367 160.167 56.367C161.714 56.367 162.598 57.234 162.598 59.002V64H164.23V58.815C164.23 56.163 162.683 54.905 160.49 54.905ZM174.882 54.99V56.384C174.117 55.398 172.893 54.905 171.55 54.905C168.949 54.905 166.977 56.656 166.977 59.257C166.977 61.858 168.949 63.626 171.55 63.626C172.842 63.626 174.015 63.167 174.797 62.232V62.946C174.797 64.986 173.828 65.972 171.703 65.972C170.377 65.972 169.068 65.513 168.235 64.799L167.453 66.057C168.439 66.941 170.105 67.4 171.754 67.4C174.814 67.4 176.429 65.955 176.429 62.776V54.99H174.882ZM171.737 62.198C169.918 62.198 168.626 60.991 168.626 59.257C168.626 57.506 169.918 56.333 171.737 56.333C173.539 56.333 174.831 57.506 174.831 59.257C174.831 60.991 173.539 62.198 171.737 62.198Z" fill="white"/>
<defs>
<clipPath id="clip0_359_17855">
<rect width="47.9683" height="50.7154" fill="white" transform="translate(5.01849) rotate(5.67896)"/>
</clipPath>
</defs>
</svg>
