<svg width="5" height="18" viewBox="0 0 5 18" fill="none" xmlns="http://www.w3.org/2000/svg">
<path d="M1.52155 13.5938C1.92849 13.1875 2.39804 12.9844 2.93019 12.9844C3.46235 12.9844 3.9319 13.1875 4.33884 13.5938C4.74578 14 4.94925 14.4688 4.94925 15C4.94925 15.5312 4.74578 16 4.33884 16.4062C3.9319 16.8125 3.46235 17.0156 2.93019 17.0156C2.39804 17.0156 1.92849 16.8125 1.52155 16.4062C1.1146 16 0.911133 15.5312 0.911133 15C0.911133 14.4688 1.1146 14 1.52155 13.5938ZM1.52155 7.59375C1.92849 7.1875 2.39804 6.98438 2.93019 6.98438C3.46235 6.98438 3.9319 7.1875 4.33884 7.59375C4.74578 8 4.94925 8.46875 4.94925 9C4.94925 9.53125 4.74578 10 4.33884 10.4062C3.9319 10.8125 3.46235 11.0156 2.93019 11.0156C2.39804 11.0156 1.92849 10.8125 1.52155 10.4062C1.1146 10 0.911133 9.53125 0.911133 9C0.911133 8.46875 1.1146 8 1.52155 7.59375ZM4.33884 4.40625C3.9319 4.8125 3.46235 5.01562 2.93019 5.01562C2.39804 5.01562 1.92849 4.8125 1.52155 4.40625C1.1146 4 0.911133 3.53125 0.911133 3C0.911133 2.46875 1.1146 2 1.52155 1.59375C1.92849 1.1875 2.39804 0.984375 2.93019 0.984375C3.46235 0.984375 3.9319 1.1875 4.33884 1.59375C4.74578 2 4.94925 2.46875 4.94925 3C4.94925 3.53125 4.74578 4 4.33884 4.40625Z" fill="#3E5363"/>
</svg>
